<?xml version="1.0" encoding="UTF-8"?>
<svg id="Layer_1" xmlns="http://www.w3.org/2000/svg" version="1.1" viewBox="0 0 124.9 124.9">
  <!-- Generator: Adobe Illustrator 29.5.1, SVG Export Plug-In . SVG Version: 2.1.0 Build 141)  -->
  <defs>
    <style>
      .st0 {
        fill: #6320ee;
      }

      .st1 {
        fill: #fff;
      }

      .st2 {
        fill: #211a1d;
      }
    </style>
  </defs>
  <rect class="st2" width="124.9" height="124.9"/>
  <g>
    <polygon class="st1" points="38.72 29.65 78.44 29.65 112.63 29.65 97.79 15.07 32.66 15.07 12.59 34.77 12.59 81.18 20.64 89.08 40.54 89.08 48.58 81.18 48.58 50.4 62.94 50.4 77.79 35.83 41.58 35.83 33.73 43.53 33.73 74.51 27.44 74.51 27.44 40.72 38.72 29.65"/>
    <polygon class="st0" points="86.67 95.26 46.95 95.26 12.11 95.26 26.95 109.83 92.73 109.83 112.79 90.13 112.79 43.72 104.75 35.82 84.85 35.82 76.81 43.72 76.81 74.5 62.44 74.5 47.6 89.08 83.81 89.08 91.65 81.38 91.65 50.4 97.95 50.4 97.95 84.18 86.67 95.26"/>
  </g>
</svg>