<?xml version="1.0" encoding="UTF-8"?>
<svg id="Layer_1" xmlns="http://www.w3.org/2000/svg" version="1.1" viewBox="0 0 337.68 119.69">
  <!-- Generator: Adobe Illustrator 29.5.1, SVG Export Plug-In . SVG Version: 2.1.0 Build 141)  -->
  <defs>
    <style>
      .st0 {
        fill: #6320ee;
      }

      .st1 {
        fill: #fff;
      }

      .st2 {
        fill: #211a1d;
      }
    </style>
  </defs>
  <rect class="st2" width="337.68" height="119.69"/>
  <g>
    <polygon class="st1" points="40.64 27.04 80.36 27.04 114.56 27.04 99.72 12.46 34.58 12.46 14.52 32.16 14.52 78.57 22.56 86.47 42.46 86.47 50.5 78.58 50.5 47.79 64.87 47.79 79.71 33.22 43.5 33.22 35.66 40.92 35.66 71.9 29.36 71.9 29.36 38.11 40.64 27.04"/>
    <polygon class="st0" points="88.6 92.65 48.87 92.65 14.04 92.65 28.88 107.22 94.65 107.22 114.72 87.52 114.72 41.11 106.67 33.21 86.78 33.21 78.74 41.11 78.74 71.89 64.37 71.89 49.53 86.47 85.74 86.47 93.58 78.77 93.58 47.79 99.88 47.79 99.88 81.58 88.6 92.65"/>
  </g>
  <g>
    <polygon class="st0" points="163.51 28.83 163.51 19.9 136.71 19.9 136.71 56.29 146.81 56.29 146.81 43.39 163.51 43.39 163.51 34.46 146.81 34.46 146.81 28.83 163.51 28.83"/>
    <path class="st0" d="M234.15,56.29V19.9h10.11v27.41h15.7v8.98h-25.8Z"/>
    <polygon class="st0" points="211.33 47.52 211.33 42.56 228.56 42.56 228.56 33.63 211.33 33.63 211.33 28.83 228.56 28.83 228.56 19.9 201.22 19.9 201.22 56.29 228.99 56.29 228.99 47.52 211.33 47.52"/>
    <polygon class="st0" points="178.41 47.52 178.41 42.56 195.64 42.56 195.64 33.63 178.41 33.63 178.41 28.83 195.64 28.83 195.64 19.9 168.3 19.9 168.3 56.29 196.07 56.29 196.07 47.52 178.41 47.52"/>
  </g>
  <g>
    <path class="st1" d="M274.85,56.29v-13.05h-4.76v-4.28h14.23v4.28h-4.66v13.05h-4.81Z"/>
    <polygon class="st1" points="298.44 44.98 291.81 44.98 291.81 38.96 287 38.96 287 56.29 291.81 56.29 291.81 49.31 298.44 49.31 298.44 56.29 303.26 56.29 303.26 38.96 298.44 38.96 298.44 44.98"/>
    <polygon class="st1" points="310.95 49.75 319.16 49.75 319.16 45.5 310.95 45.5 310.95 43.22 319.16 43.22 319.16 38.96 306.14 38.96 306.14 56.29 319.36 56.29 319.36 52.12 310.95 52.12 310.95 49.75"/>
  </g>
  <g>
    <path class="st1" d="M246.18,99.79v-36.4h8.3l12.02,16.55,12.02-16.55h8.3v36.4h-9.36v-19.27l-10.96,14.88-10.96-14.88v19.27h-9.36Z"/>
    <polygon class="st1" points="302.98 91.02 302.98 86.06 320.21 86.06 320.21 77.13 302.98 77.13 302.98 72.32 320.21 72.32 320.21 63.39 292.87 63.39 292.87 99.79 320.64 99.79 320.64 91.02 302.98 91.02"/>
    <polygon class="st1" points="136.71 99.79 146.81 99.79 146.81 86.37 161.97 86.37 161.97 77.96 146.81 77.96 146.81 72.32 163.51 72.32 163.51 63.39 136.71 63.39 136.71 99.79"/>
    <path class="st1" d="M198.46,75.92c0-3.5-1.28-6.42-3.88-8.88-2.61-2.45-5.74-3.66-9.41-3.66h-16.86v36.4h10.11v-11.33h3.83l7.55,11.33h11.6l-9.25-13.47c3.83-1.72,6.33-5.74,6.33-10.39ZM184.04,80.52h-5.64v-8.15h6.49c1.97,0,3.51,1.57,3.51,3.86,0,2.72-1.65,4.28-4.36,4.28Z"/>
    <polygon class="st1" points="219.94 99.79 244.25 99.79 228.6 63.39 219 63.39 203.35 99.79 214.43 99.79 223.8 76.08 229.74 91.02 223.4 91.02 219.94 99.79"/>
  </g>
</svg>